<?xml version="1.0" encoding="utf-8"?>
<!-- Generator: Adobe Illustrator 24.0.0, SVG Export Plug-In . SVG Version: 6.00 Build 0)  -->
<svg version="1.1" id="Layer_1" xmlns="http://www.w3.org/2000/svg" xmlns:xlink="http://www.w3.org/1999/xlink" x="0px" y="0px"
	 viewBox="0 0 256 256" enable-background="new 0 0 256 256" xml:space="preserve">
<g>
	<g>
		<g>
			<g>
				<g>
					<g>
						<path fill="#58595B" d="M57.951,114.347v105.368c0,3.909,3.169,7.079,7.079,7.079h125.94c3.909,0,7.079-3.169,7.079-7.079
							V114.347H57.951z"/>
					</g>
					<g>
						<path fill="#808285" d="M63.95,205.18c-1.101,0-2-0.9-2-2v-72.86c0-1.1,0.899-2,2-2c1.1,0,2,0.9,2,2v72.86
							C65.95,204.28,65.05,205.18,63.95,205.18z M63.95,124.32c-1.101,0-2-0.89-2-2c0-1.1,0.899-2,2-2c1.1,0,2,0.9,2,2
							C65.95,123.43,65.05,124.32,63.95,124.32z"/>
					</g>
				</g>
				<g>
					<g>
						<path fill="#414042" d="M189.2,114.347v96.52c0,3.909-3.169,7.079-7.079,7.079H57.951v1.77c0,3.909,3.169,7.079,7.079,7.079
							h125.94c3.91,0,7.079-3.169,7.079-7.079V114.347H189.2z"/>
					</g>
				</g>
				<g>
					<g>
						<path fill="#58595B" d="M208.188,107.269V83.637c0-3.909-3.169-7.079-7.079-7.079H54.891c-3.909,0-7.079,3.169-7.079,7.079
							v23.632c0,3.909,3.169,7.079,7.079,7.079h146.217C205.018,114.347,208.188,111.178,208.188,107.269z"/>
					</g>
				</g>
				<g>
					<g>
						<path fill="#414042" d="M201.109,76.558h-1.77V98.42c0,3.909-3.169,7.079-7.079,7.079H47.812v1.77
							c0,3.909,3.169,7.079,7.079,7.079h146.217c3.909,0,7.079-3.169,7.079-7.079V83.637
							C208.188,79.727,205.018,76.558,201.109,76.558z"/>
					</g>
				</g>
				<g>
					<g>
						<path fill="#F79219" d="M94.992,29.206c-13.076,0-23.676,10.6-23.676,23.676s10.6,23.676,23.676,23.676H128V62.214
							C128,43.984,113.222,29.206,94.992,29.206z M117.382,65.94h-22.39c-7.2,0-13.058-5.858-13.058-13.058
							s5.858-13.058,13.058-13.058c12.346,0,22.39,10.044,22.39,22.39V65.94z"/>
					</g>
					<g>
						<path fill="#EF7816" d="M161.008,29.206c-18.23,0-33.008,14.778-33.008,33.008v14.344h33.008
							c13.076,0,23.676-10.6,23.676-23.676S174.084,29.206,161.008,29.206z M161.008,65.94h-22.39v-3.726
							c0-12.346,10.044-22.39,22.39-22.39c7.2,0,13.058,5.858,13.058,13.058S168.209,65.94,161.008,65.94z"/>
					</g>
				</g>
			</g>
		</g>
		<g>
			<g>
				<rect x="112.038" y="76.558" fill="#F79219" width="31.923" height="150.236"/>
			</g>
		</g>
		<g>
			<g>
				<polygon fill="#EF7816" points="128,76.558 128,209.097 112.038,209.097 112.038,226.794 143.962,226.794 143.962,76.558 				
					"/>
			</g>
		</g>
	</g>
	<g>
		<g>
			<g>
				<g>
					<g>
						<g>
							<path fill="#FFC91D" d="M134.753,94.467L134.753,94.467c7.427-8.226,21.07-2.575,20.504,8.493v0
								c-0.356,6.97,5.393,12.719,12.363,12.363l0,0c11.068-0.565,16.719,13.078,8.493,20.504l0,0c-5.18,4.677-5.18,12.807,0,17.484
								l0,0c8.226,7.426,2.575,21.07-8.493,20.504l0,0c-6.97-0.356-12.719,5.393-12.363,12.363l0,0
								c0.565,11.068-13.078,16.719-20.504,8.493l0,0c-4.677-5.18-12.807-5.18-17.484,0l0,0c-7.427,8.226-21.07,2.575-20.504-8.493
								l0,0c0.356-6.97-5.393-12.719-12.363-12.363l0,0c-11.068,0.565-16.72-13.078-8.493-20.504l0,0
								c5.18-4.677,5.18-12.807,0-17.484l0,0c-8.226-7.427-2.575-21.07,8.493-20.504l0,0c6.97,0.356,12.719-5.393,12.363-12.363v0
								c-0.565-11.068,13.078-16.719,20.504-8.493l0,0C121.946,99.647,130.076,99.647,134.753,94.467z"/>
						</g>
					</g>
					<g>
						<g>
							
								<ellipse transform="matrix(0.8847 -0.4662 0.4662 0.8847 -52.8703 75.4275)" fill="#FFA91A" cx="126.011" cy="144.57" rx="39.946" ry="39.946"/>
						</g>
					</g>
					<g>
						<path fill="#F79219" d="M148.813,111.768c4.503,6.466,7.144,14.326,7.144,22.802c0,22.061-17.884,39.946-39.946,39.946
							c-8.477,0-16.336-2.641-22.802-7.144c7.217,10.362,19.217,17.144,32.802,17.144c22.062,0,39.946-17.884,39.946-39.946
							C165.957,130.985,159.175,118.984,148.813,111.768z"/>
					</g>
					<g>
						<path fill="#EF7816" d="M151.646,113.934c5.811,6.937,9.311,15.878,9.311,25.635c0,22.061-17.884,39.946-39.946,39.946
							c-9.758,0-18.698-3.499-25.635-9.31c7.328,8.747,18.332,14.31,30.635,14.31c22.062,0,39.946-17.884,39.946-39.946
							C165.957,132.266,160.394,121.262,151.646,113.934z"/>
					</g>
				</g>
			</g>
		</g>
		<g>
			<g>
				<path fill="#FFFFFF" d="M127.816,125.294l3.468,10.674c0.254,0.782,0.983,1.312,1.805,1.312h10.545
					c2.052,0,2.906,2.626,1.245,3.832l-8.531,6.198c-0.665,0.483-0.944,1.34-0.689,2.122l3.468,10.674
					c0.568,1.749-1.433,3.203-2.921,2.122l-8.95-6.503c-0.743-0.539-1.748-0.539-2.49,0l-8.95,6.503
					c-1.488,1.081-3.489-0.373-2.921-2.122l3.468-10.674c0.254-0.782-0.024-1.639-0.689-2.122l-8.531-6.198
					c-1.66-1.206-0.807-3.832,1.245-3.832h10.545c0.822,0,1.551-0.529,1.805-1.312l3.468-10.674
					C124.774,123.546,127.248,123.546,127.816,125.294z"/>
			</g>
		</g>
	</g>
</g>
</svg>
