<?xml version="1.0" encoding="utf-8"?>
<!-- Generator: Adobe Illustrator 24.0.0, SVG Export Plug-In . SVG Version: 6.00 Build 0)  -->
<svg version="1.1" id="Layer_1" xmlns="http://www.w3.org/2000/svg" xmlns:xlink="http://www.w3.org/1999/xlink" x="0px" y="0px"
	 viewBox="0 0 256 256" enable-background="new 0 0 256 256" xml:space="preserve">
<g>
	<g>
		<g>
			<g>
				<g>
					<g>
						<path fill="#FFA91A" d="M165.156,137.02c0,0,0-33.482,0-33.482h-69.28l0,44.526c4.029,3.03,6.846,6.036,6.792,8.492h57.959
							v-4.58C160.278,146.426,165.507,142.57,165.156,137.02z"/>
					</g>
					<g>
						<g>
							<path fill="#FFA91A" d="M95.877,147.613v0.451c0.264,0.198,0.522,0.397,0.776,0.595
								C96.427,148.315,96.167,147.966,95.877,147.613z"/>
						</g>
						<g>
							<path fill="#F79219" d="M165.156,137.02c0,0,0-33.482,0-33.482h-5c0,9.336,0,28.482,0,28.482
								c0.35,5.55-4.878,9.406-4.528,14.956v4.58h-55.7c1.734,1.792,2.774,3.499,2.741,5h57.959v-4.58
								C160.278,146.426,165.507,142.57,165.156,137.02z"/>
						</g>
					</g>
					<g>
						<path fill="#EF7816" d="M95.877,123.799c0,2.809,2.775,4.746,5.426,3.815c2.213-0.777,4.591-1.202,7.07-1.202
							c8.194,0,15.314,4.589,18.936,11.336c0.879,1.638,3.297,1.638,4.176,0c3.621-6.747,10.742-11.336,18.936-11.336
							c1.182,0,2.341,0.096,3.47,0.281c5.93,0.97,11.266-3.776,11.266-9.786l0-13.369h-69.28V123.799z"/>
					</g>
				</g>
				<g>
					<path fill="#FFC91D" d="M130.517,85.831v22.075c0,4.783-3.877,8.66-8.66,8.66l0,0c-4.783,0-8.66-3.877-8.66-8.66V85.831
						c0-4.783,3.877-8.66,8.66-8.66l0,0C126.639,77.171,130.517,81.048,130.517,85.831z"/>
				</g>
				<g>
					<path fill="#FFA91A" d="M124.948,77.74c0.367,0.96,0.569,2.002,0.569,3.091v22.075c0,4.783-3.877,8.66-8.66,8.66
						c-1.089,0-2.131-0.202-3.091-0.569c1.245,3.256,4.398,5.569,8.091,5.569c4.783,0,8.66-3.877,8.66-8.66V85.831
						C130.517,82.138,128.204,78.985,124.948,77.74z"/>
				</g>
				<g>
					<path fill="#FFC91D" d="M147.837,90.132v22.075c0,4.783-3.877,8.66-8.66,8.66l0,0c-4.783,0-8.66-3.877-8.66-8.66V90.132
						c0-4.783,3.877-8.66,8.66-8.66l0,0C143.959,81.473,147.837,85.35,147.837,90.132z"/>
				</g>
				<g>
					<path fill="#FFA91A" d="M142.268,82.042c0.367,0.96,0.569,2.002,0.569,3.091v22.075c0,4.783-3.877,8.66-8.66,8.66
						c-1.089,0-2.131-0.202-3.091-0.569c1.245,3.256,4.398,5.569,8.091,5.569c4.783,0,8.66-3.877,8.66-8.66V90.132
						C147.837,86.439,145.524,83.286,142.268,82.042z"/>
				</g>
				<g>
					<path fill="#FFC91D" d="M165.156,94.434v22.074c0,4.783-3.877,8.66-8.66,8.66l0,0c-4.783,0-8.66-3.877-8.66-8.66V94.434
						c0-4.783,3.877-8.66,8.66-8.66l0,0C161.279,85.774,165.156,89.652,165.156,94.434z"/>
				</g>
				<g>
					<path fill="#FFA91A" d="M159.588,86.343c0.367,0.96,0.569,2.002,0.569,3.091v22.074c0,4.783-3.877,8.66-8.66,8.66
						c-1.089,0-2.131-0.202-3.091-0.569c1.245,3.256,4.398,5.569,8.091,5.569c4.783,0,8.66-3.877,8.66-8.66V94.434
						C165.156,90.741,162.844,87.588,159.588,86.343z"/>
				</g>
				<g>
					<path fill="#FFC91D" d="M113.197,81.529v22.074c0,4.783-3.877,8.66-8.66,8.66l0,0c-4.783,0-8.66-3.877-8.66-8.66V81.529
						c0-4.783,3.877-8.66,8.66-8.66l0,0C109.319,72.869,113.197,76.746,113.197,81.529z"/>
				</g>
				<g>
					<path fill="#FFA91A" d="M107.628,73.438c0.367,0.96,0.569,2.002,0.569,3.091v22.074c0,4.783-3.877,8.66-8.66,8.66
						c-1.089,0-2.131-0.202-3.091-0.569c1.245,3.256,4.398,5.569,8.091,5.569c4.783,0,8.66-3.877,8.66-8.66V81.529
						C113.197,77.836,110.884,74.683,107.628,73.438z"/>
				</g>
				<g>
					<path fill="#FFA91A" d="M123.67,97.939c-0.59-1.772-2.534-2.709-4.308-2.126l-28.429,9.342
						c-3.519,1.156-5.897,4.441-5.897,8.145v18.992c0,9.566,7.754,17.32,17.32,17.32v-28.818l11.771-3.868
						C122.014,114.333,126.298,105.823,123.67,97.939z"/>
				</g>
				<g>
					<path fill="#FFC91D" d="M91.04,134.29c-1.11,0-2-0.9-2-2c0-1.1,0.89-2,2-2c1.1,0,2,0.9,2,2
						C93.04,133.39,92.14,134.29,91.04,134.29z M91.04,126.29c-1.11,0-2-0.9-2-2V113.3c-0.01-1.98,1.26-3.73,3.14-4.35l13.51-4.43
						c1.03-0.34,2.18,0.25,2.52,1.27c0.34,1.05-0.23,2.18-1.28,2.53l-13.5,4.43c-0.24,0.09-0.39,0.29-0.39,0.55v10.99
						C93.04,125.39,92.14,126.29,91.04,126.29z"/>
				</g>
				<g>
					<path fill="#F79219" d="M123.67,97.939c-0.53-1.591-2.152-2.509-3.763-2.257c1.346,7.265-2.853,14.586-10.067,16.956
						l-9.412,3.093c-1.407,0.462-2.359,1.776-2.359,3.258v4.858c0,1.894,1.535,3.429,3.429,3.429h0.857v-6.483l11.771-3.868
						C122.015,114.333,126.298,105.823,123.67,97.939z"/>
				</g>
				<g>
					<path fill="#FFA91A" d="M168.383,162.312v23.601c0,3.179-2.577,5.756-5.756,5.756h-62.071c-3.179,0-5.756-2.577-5.756-5.756
						v-23.601c0-3.179,2.577-5.756,5.756-5.756h62.071C165.806,156.555,168.383,159.133,168.383,162.312z"/>
				</g>
				<g>
					<path fill="#F79219" d="M162.627,156.555h-4.244v19.357c0,3.179-2.577,5.756-5.756,5.756H94.799v4.244
						c0,3.179,2.577,5.756,5.756,5.756h62.071c3.179,0,5.756-2.577,5.756-5.756v-23.601
						C168.383,159.133,165.806,156.555,162.627,156.555z"/>
				</g>
				<g>
					<path fill="#EF7816" d="M163.339,156.599c0.029,0.233,0.044,0.471,0.044,0.712v23.601c0,3.179-2.577,5.756-5.756,5.756H95.555
						c-0.241,0-0.479-0.015-0.712-0.044c0.351,2.843,2.774,5.044,5.712,5.044h62.071c3.179,0,5.756-2.577,5.756-5.756v-23.601
						C168.383,159.374,166.182,156.95,163.339,156.599z"/>
				</g>
				<g>
					<circle fill="#F79219" cx="113.197" cy="174.112" r="6.764"/>
				</g>
				<g>
					<path fill="#EF7816" d="M114.775,167.533c0.121,0.507,0.186,1.035,0.186,1.579c0,3.736-3.029,6.764-6.764,6.764
						c-0.544,0-1.072-0.065-1.579-0.186c0.711,2.974,3.386,5.186,6.579,5.186c3.736,0,6.764-3.029,6.764-6.764
						C119.961,170.92,117.75,168.244,114.775,167.533z"/>
				</g>
			</g>
		</g>
		<g>
			<path fill="#F79219" d="M159.181,220.046h-55.18c-1.105,0-2-0.895-2-2v-26.422h59.18v26.422
				C161.181,219.151,160.286,220.046,159.181,220.046z"/>
		</g>
		<g>
			<path fill="#EF7816" d="M151.181,191.625v26.422c0,1.105-0.895,2-2,2h10c1.105,0,2-0.895,2-2v-26.422H151.181z"/>
		</g>
	</g>
	<g>
		<g>
			<g>
				<g>
					<path fill="#EF7816" d="M128.001,227.313c-53.348,0-96.75-43.402-96.75-96.75c0-30.327,13.816-58.321,37.907-76.804
						c2.189-1.681,5.329-1.269,7.01,0.923c1.681,2.191,1.268,5.33-0.923,7.01c-21.604,16.576-33.994,41.678-33.994,68.871
						c0,47.834,38.916,86.75,86.75,86.75c2.762,0,5,2.239,5,5S130.763,227.313,128.001,227.313z"/>
				</g>
				<g>
					<g>
						<path fill="#FFA91A" d="M83.665,200.431c2.591,9.946,12.24,16.043,12.24,16.043s5.448-10.029,2.857-19.976
							c-1.656-6.358-6.196-11.142-9.257-13.767c-1.492-1.279-3.8-0.678-4.478,1.166C83.637,187.682,82.009,194.074,83.665,200.431z"
							/>
					</g>
					<g>
						<path fill="#FFA91A" d="M79.863,228.714c9.946-2.591,16.043-12.24,16.043-12.24s-10.029-5.448-19.976-2.857
							c-6.358,1.656-11.142,6.196-13.767,9.257c-1.279,1.492-0.678,3.8,1.166,4.478C67.113,228.742,73.505,230.37,79.863,228.714z"
							/>
					</g>
				</g>
				<g>
					<g>
						<path fill="#FFA91A" d="M59.686,179.253c-0.927,10.236,6.091,19.238,6.091,19.238s8.52-7.595,9.447-17.831
							c0.592-6.543-2.061-12.582-4.053-16.087c-0.971-1.708-3.346-1.924-4.608-0.417C63.973,167.247,60.278,172.71,59.686,179.253z"
							/>
					</g>
					<g>
						<path fill="#FFA91A" d="M46.539,204.582c10.236,0.927,19.238-6.091,19.238-6.091s-7.595-8.52-17.831-9.447
							c-6.543-0.592-12.582,2.061-16.087,4.053c-1.708,0.971-1.924,3.346-0.417,4.608C34.532,200.294,39.996,203.989,46.539,204.582
							z"/>
					</g>
				</g>
				<g>
					<g>
						<path fill="#FFA91A" d="M43.096,146c-3.897,9.51,0.161,20.178,0.161,20.178s10.378-4.752,14.275-14.262
							c2.491-6.079,1.732-12.631,0.859-16.568c-0.425-1.918-2.632-2.823-4.282-1.755C50.726,135.786,45.587,139.921,43.096,146z"/>
					</g>
					<g>
						<path fill="#FFA91A" d="M23.079,166.339c9.51,3.897,20.178-0.161,20.178-0.161s-4.752-10.378-14.262-14.275
							c-6.079-2.491-12.631-1.732-16.568-0.859c-1.918,0.425-2.823,2.632-1.755,4.282C12.865,158.709,17,163.848,23.079,166.339z"/>
					</g>
				</g>
				<g>
					<g>
						<path fill="#FFA91A" d="M45.943,109.329c-8.408,5.911-10.738,17.085-10.738,17.085s11.303,1.589,19.711-4.322
							c5.375-3.779,8.265-9.707,9.652-13.493c0.676-1.845-0.696-3.797-2.661-3.785C57.875,104.836,51.318,105.55,45.943,109.329z"/>
					</g>
					<g>
						<path fill="#FFA91A" d="M18.121,115.676c5.911,8.408,17.085,10.738,17.085,10.738s1.589-11.303-4.322-19.711
							c-3.779-5.375-9.707-8.265-13.493-9.652c-1.845-0.676-3.797,0.696-3.785,2.661C13.628,103.744,14.342,110.301,18.121,115.676z
							"/>
					</g>
				</g>
				<g>
					<g>
						<path fill="#FFA91A" d="M62.013,76.363c-9.98,2.458-16.205,12.025-16.205,12.025s9.956,5.582,19.936,3.124
							c6.379-1.571,11.224-6.047,13.89-9.072c1.299-1.474,0.729-3.79-1.106-4.493C74.762,76.505,68.393,74.791,62.013,76.363z"/>
					</g>
					<g>
						<path fill="#FFA91A" d="M33.784,72.182c2.458,9.98,12.025,16.205,12.025,16.205s5.582-9.956,3.124-19.936
							c-1.571-6.379-6.047-11.224-9.072-13.89c-1.474-1.299-3.79-0.729-4.493,1.106C33.927,59.434,32.213,65.803,33.784,72.182z"/>
					</g>
				</g>
				<g>
					<path fill="#FFA91A" d="M68.852,45.977c-5.402,5.664-7.26,13.343-7.899,17.843c-0.275,1.938,1.44,3.573,3.362,3.206
						c4.465-0.851,12.047-3.071,17.449-8.735c5.402-5.664,7.26-13.343,7.899-17.843c0.275-1.938-1.44-3.573-3.362-3.206
						C81.836,38.094,74.254,40.314,68.852,45.977z"/>
				</g>
			</g>
			<g>
				<g>
					<path fill="#EF7816" d="M127.999,227.313c-2.761,0-5-2.239-5-5s2.239-5,5-5c47.834,0,86.75-38.916,86.75-86.75
						c0-27.193-12.391-52.295-33.994-68.871c-2.19-1.681-2.604-4.819-0.923-7.01c1.68-2.19,4.818-2.606,7.011-0.923
						c24.09,18.482,37.906,46.477,37.906,76.804C224.749,183.912,181.347,227.313,127.999,227.313z"/>
				</g>
				<g>
					<g>
						<path fill="#FFA91A" d="M172.335,200.431c-2.591,9.946-12.24,16.043-12.24,16.043s-5.448-10.029-2.857-19.976
							c1.656-6.358,6.196-11.142,9.257-13.767c1.492-1.279,3.8-0.678,4.478,1.166C172.363,187.682,173.991,194.074,172.335,200.431z
							"/>
					</g>
					<g>
						<path fill="#FFA91A" d="M176.137,228.714c-9.946-2.591-16.043-12.24-16.043-12.24s10.029-5.448,19.976-2.857
							c6.358,1.656,11.142,6.196,13.767,9.257c1.279,1.492,0.678,3.8-1.166,4.478C188.887,228.742,182.495,230.37,176.137,228.714z"
							/>
					</g>
				</g>
				<g>
					<g>
						<path fill="#FFA91A" d="M196.314,179.253c0.927,10.236-6.091,19.238-6.091,19.238s-8.52-7.595-9.447-17.831
							c-0.592-6.543,2.061-12.582,4.053-16.087c0.971-1.708,3.346-1.924,4.608-0.417
							C192.027,167.247,195.722,172.71,196.314,179.253z"/>
					</g>
					<g>
						<path fill="#FFA91A" d="M209.461,204.582c-10.236,0.927-19.238-6.091-19.238-6.091s7.595-8.52,17.831-9.447
							c6.543-0.592,12.582,2.061,16.087,4.053c1.708,0.971,1.924,3.346,0.417,4.608
							C221.468,200.294,216.004,203.989,209.461,204.582z"/>
					</g>
				</g>
				<g>
					<g>
						<path fill="#FFA91A" d="M212.904,146c3.897,9.51-0.161,20.178-0.161,20.178s-10.378-4.752-14.275-14.262
							c-2.491-6.079-1.732-12.631-0.859-16.568c0.425-1.918,2.632-2.823,4.282-1.755C205.274,135.786,210.413,139.921,212.904,146z"
							/>
					</g>
					<g>
						<path fill="#FFA91A" d="M232.921,166.339c-9.51,3.897-20.178-0.161-20.178-0.161s4.752-10.378,14.262-14.275
							c6.079-2.491,12.631-1.732,16.568-0.859c1.918,0.425,2.823,2.632,1.755,4.282C243.135,158.709,239,163.848,232.921,166.339z"
							/>
					</g>
				</g>
				<g>
					<g>
						<path fill="#FFA91A" d="M210.057,109.329c8.408,5.911,10.738,17.085,10.738,17.085s-11.303,1.589-19.711-4.322
							c-5.374-3.779-8.265-9.707-9.652-13.493c-0.676-1.845,0.696-3.797,2.661-3.785
							C198.125,104.836,204.682,105.55,210.057,109.329z"/>
					</g>
					<g>
						<path fill="#FFA91A" d="M237.879,115.676c-5.911,8.408-17.085,10.738-17.085,10.738s-1.589-11.303,4.322-19.711
							c3.779-5.375,9.707-8.265,13.493-9.652c1.845-0.676,3.797,0.696,3.785,2.661C242.372,103.744,241.658,110.301,237.879,115.676
							z"/>
					</g>
				</g>
				<g>
					<g>
						<path fill="#FFA91A" d="M193.987,76.363c9.98,2.458,16.205,12.025,16.205,12.025s-9.956,5.582-19.936,3.124
							c-6.379-1.571-11.224-6.047-13.89-9.072c-1.299-1.474-0.729-3.79,1.106-4.493C181.238,76.505,187.607,74.791,193.987,76.363z"
							/>
					</g>
					<g>
						<path fill="#FFA91A" d="M222.216,72.182c-2.458,9.98-12.025,16.205-12.025,16.205s-5.582-9.956-3.124-19.936
							c1.571-6.379,6.047-11.224,9.072-13.89c1.474-1.299,3.79-0.729,4.493,1.106C222.073,59.434,223.787,65.803,222.216,72.182z"/>
					</g>
				</g>
				<g>
					<path fill="#FFA91A" d="M187.148,45.977c5.402,5.664,7.26,13.343,7.899,17.843c0.275,1.938-1.44,3.573-3.362,3.206
						c-4.465-0.851-12.047-3.071-17.449-8.735c-5.402-5.664-7.26-13.343-7.899-17.843c-0.275-1.938,1.44-3.573,3.362-3.206
						C174.164,38.094,181.746,40.314,187.148,45.977z"/>
				</g>
			</g>
		</g>
		<g>
			<g>
				<path fill="#FFA91A" d="M124.841,28.634c-3.475,7.54-9.528,13.592-17.068,17.068c-1.742,0.789-2.515,2.84-1.726,4.582
					c0.347,0.766,0.96,1.379,1.726,1.726c7.541,3.473,13.594,9.525,17.068,17.065c0.782,1.745,2.831,2.525,4.576,1.743
					c0.775-0.348,1.396-0.968,1.743-1.743c3.473-7.541,9.526-13.594,17.068-17.065c1.742-0.789,2.515-2.84,1.726-4.582
					c-0.347-0.766-0.96-1.379-1.726-1.726c-7.541-3.473-13.594-9.526-17.068-17.068c-0.782-1.745-2.831-2.525-4.576-1.743
					C125.809,27.238,125.188,27.859,124.841,28.634z"/>
			</g>
		</g>
		<g>
			<g>
				<path fill="#F79219" d="M149.953,47.427c-0.347-0.766-0.96-1.379-1.726-1.726c-3.03-1.396-5.82-3.208-8.298-5.366
					c-0.338,0.716-0.923,1.321-1.702,1.674c-7.542,3.472-13.595,9.524-17.068,17.065c-0.337,0.753-0.933,1.359-1.677,1.712
					c2.154,2.476,3.964,5.262,5.358,8.288c0.782,1.745,2.831,2.525,4.576,1.743c0.775-0.347,1.396-0.968,1.743-1.743
					c3.473-7.541,9.526-13.594,17.068-17.065C149.969,51.221,150.742,49.169,149.953,47.427z"/>
			</g>
		</g>
	</g>
</g>
</svg>
